<?xml version="1.0" encoding="iso-8859-1"?>
<!-- Generator: Adobe Illustrator 19.0.0, SVG Export Plug-In . SVG Version: 6.00 Build 0)  -->
<svg version="1.1" id="Capa_1" xmlns="http://www.w3.org/2000/svg" xmlns:xlink="http://www.w3.org/1999/xlink" x="0px" y="0px"
	 viewBox="0 0 512.001 512.001" style="enable-background:new 0 0 512.001 512.001;" xml:space="preserve">
<g>
	<g>
		<path d="M238.443,405.702h-58.52c-2.044,0-3.7,1.657-3.7,3.7v94.344c0,1.865,1.385,3.446,3.235,3.68
			c19.568,2.477,39.215,4.001,58.881,4.572c2.083,0.06,3.805-1.623,3.805-3.708v-98.888
			C242.144,407.358,240.486,405.702,238.443,405.702z"/>
	</g>
</g>
<g>
	<g>
		<path d="M238.443,319.166h-58.52c-2.044,0-3.7,1.657-3.7,3.7v49.06c0,2.044,1.657,3.7,3.7,3.7h58.52c2.044,0,3.7-1.657,3.7-3.7
			v-49.06C242.144,320.823,240.486,319.166,238.443,319.166z"/>
	</g>
</g>
<g>
	<g>
		<path d="M461.344,234.637H275.919c-2.044,0-3.7,1.657-3.7,3.7v47.054c0,2.044,1.656,3.7,3.7,3.7h185.425
			c2.044,0,3.7-1.657,3.7-3.7v-47.054C465.044,236.293,463.387,234.637,461.344,234.637z"/>
	</g>
</g>
<g>
	<g>
		<path d="M238.443,234.637H50.657c-2.044,0-3.7,1.657-3.7,3.7v47.054c0,2.044,1.657,3.7,3.7,3.7h187.786c2.043,0,3.7-1.656,3.7-3.7
			v-47.054C242.144,236.293,240.486,234.637,238.443,234.637z"/>
	</g>
</g>
<g>
	<g>
		<path d="M142.446,319.166H50.657c-2.044,0-3.7,1.657-3.7,3.7v49.06c0,2.044,1.657,3.7,3.7,3.7h91.789c2.044,0,3.7-1.657,3.7-3.7
			v-49.06C146.147,320.823,144.49,319.166,142.446,319.166z"/>
	</g>
</g>
<g>
	<g>
		<path d="M333.99,405.702h-58.071c-2.044,0-3.7,1.657-3.7,3.7v98.81c0,2.09,1.73,3.776,3.82,3.707
			c19.518-0.643,39.013-2.224,58.429-4.744c1.845-0.24,3.224-1.819,3.224-3.678v-94.095
			C337.691,407.358,336.034,405.702,333.99,405.702z"/>
	</g>
</g>
<g>
	<g>
		<path d="M461.344,319.166h-89.878c-2.044,0-3.7,1.657-3.7,3.7v49.06c0,2.044,1.657,3.7,3.7,3.7h89.878c2.044,0,3.7-1.657,3.7-3.7
			v-49.06C465.045,320.823,463.388,319.166,461.344,319.166z"/>
	</g>
</g>
<g>
	<g>
		<path d="M238.938,157.909c-32.119-4.004-61.52-18.642-85.872-42.939c-24.974-24.917-42.866-59.143-49.088-93.9
			c-0.02-0.11-1.345-7.834-2.944-17.15c-0.305-1.776-1.846-3.076-3.648-3.076H66.908c-5.084,0-10.055,1.941-13.529,5.653
			c-4.963,5.304-6.241,12.841-3.516,19.35l4.502,10.754c21.85,52.179,21.817,112.537,0.048,164.702
			c-0.805,1.928,0.621,4.051,2.709,4.051l181.321,0.051c2.044,0,3.7-1.657,3.7-3.7v-40.13
			C242.144,159.723,240.776,158.138,238.938,157.909z"/>
	</g>
</g>
<g>
	<g>
		<path d="M333.99,319.166h-58.071c-2.044,0-3.7,1.657-3.7,3.7v49.06c0,2.044,1.657,3.7,3.7,3.7h58.071c2.044,0,3.7-1.657,3.7-3.7
			v-49.06C337.691,320.822,336.033,319.166,333.99,319.166z"/>
	</g>
</g>
<g>
	<g>
		<path d="M461.344,405.702h-89.878c-2.043,0-3.7,1.656-3.7,3.7v88.044c0,2.323,2.117,4.083,4.398,3.641
			c19.288-3.737,38.457-8.401,57.443-14.019l7.166-2.12c16.767-4.961,28.272-20.363,28.272-37.85v-37.696
			C465.044,407.358,463.387,405.702,461.344,405.702z"/>
	</g>
</g>
<g>
	<g>
		<path d="M142.446,405.702H50.657c-2.044,0-3.7,1.657-3.7,3.7V447.1c0,17.486,11.505,32.887,28.272,37.849l7.166,2.12
			c19.617,5.805,39.429,10.602,59.366,14.401c2.278,0.434,4.387-1.325,4.387-3.644v-88.423
			C146.147,407.358,144.49,405.702,142.446,405.702z"/>
	</g>
</g>
<g>
	<g>
		<path d="M460.249,8.026C456.833,2.895,450.909,0,444.743,0h-27.813c-1.801,0-3.34,1.296-3.647,3.072
			c-0.001,0.011-0.003,0.021-0.005,0.032c-2.801,16.249-2.826,16.368-2.934,16.868c-7.649,35.675-25.277,68.973-49.635,93.756
			c-24.084,24.506-53.287,39.274-85.292,43.32c-1.835,0.232-3.199,1.816-3.199,3.665v40.146c0,2.044,1.657,3.7,3.7,3.7h177.964
			c2.645,0,4.427-2.69,3.406-5.129c-10.563-25.227-16.261-52.557-16.541-79.883c-0.331-32.237,6.851-64.646,20.767-93.722
			C464.273,20.062,463.808,13.369,460.249,8.026z"/>
	</g>
</g>
<g>
	<g>
		<path d="M378.902,0h-10.209C355.946,0,344,6.254,336.736,16.729l-24.667,35.574c-12.929,18.646-33.353,29.336-56.041,29.336
			c-0.003,0-0.01,0-0.013,0c-22.693-0.004-43.12-10.704-56.044-29.355l-24.628-35.543C168.079,6.258,156.131,0,143.379,0h-7.969
			c-2.294,0-4.034,2.071-3.646,4.332c1.008,5.881,1.746,10.176,1.824,10.615c5.159,28.819,20.002,57.216,40.722,77.888
			c16.132,16.096,43.605,35.283,82.872,35.283c68.084,0,111.831-59.186,123.713-114.254c0.17-0.951,0.882-5.068,1.653-9.533
			C382.938,2.07,381.196,0,378.902,0z"/>
	</g>
</g>
<g>
</g>
<g>
</g>
<g>
</g>
<g>
</g>
<g>
</g>
<g>
</g>
<g>
</g>
<g>
</g>
<g>
</g>
<g>
</g>
<g>
</g>
<g>
</g>
<g>
</g>
<g>
</g>
<g>
</g>
</svg>
