<svg id="Layer_1" enable-background="new 0 0 511.963 511.963" height="512" viewBox="0 0 511.963 511.963" width="512" xmlns="http://www.w3.org/2000/svg"><path d="m507.569 4.394c-4.065-4.066-10.097-5.449-15.526-3.563l-136.486 47.391c-6.081 2.111-10.137 7.867-10.079 14.304l.36 40.364c-.799.536-341.444 341.041-341.444 341.041-2.814 2.813-4.394 6.628-4.394 10.606s1.58 7.793 4.394 10.606l42.426 42.427c2.929 2.929 6.768 4.394 10.606 4.394s7.678-1.464 10.606-4.394c0 0 340.553-340.698 341.105-341.53l40.267.446c.056 0 .111.001.167.001 6.381 0 12.072-4.041 14.169-10.08l47.393-136.487c1.886-5.43.502-11.461-3.564-15.526zm-450.142 471.356-21.214-21.213 281.717-281.717 21.213 21.213zm302.928-302.929-21.213-21.213 23.498-23.498 35.355-14.143-14.143 35.355zm78.587-36.453-17.518-.194 17.425-43.562c2.229-5.571.923-11.935-3.32-16.177-4.244-4.244-10.608-5.549-16.178-3.321l-43.622 17.449-.156-17.535 97.066-33.704z"/></svg>